<svg width="133" height="148" viewBox="0 0 133 148" fill="none" xmlns="http://www.w3.org/2000/svg">
<path d="M66.3994 0C79.4661 0 91 3.53391 101 10.6006C111 17.6672 118.667 26.9338 124 38.4004C129.467 49.7336 132.2 61.667 132.2 74.2002C132.2 87.1335 129.666 99.2673 124.6 110.601C119.533 121.8 112 130.867 102 137.801C92.1333 144.601 80.2661 148 66.3994 148C53.3329 148 41.7328 144.467 31.5996 137.4C21.4665 130.334 13.6668 121.134 8.2002 109.801C2.73353 98.4674 0 86.6002 0 74.2002C2.60095e-05 61.2671 2.59993 49.134 7.7998 37.8008C12.9998 26.4675 20.5997 17.3337 30.5996 10.4004C40.5995 3.46712 52.5329 6.61237e-05 66.3994 0ZM97.4248 118.525L81.7998 123.65V87.5254H51.6748V118.525L42.9932 121.372C43.8954 122.482 44.8299 123.559 45.7998 124.601C53.133 132.334 62.333 136.2 73.3994 136.2C81.266 136.2 87.7332 133.667 92.7998 128.601C97.9998 123.401 101.733 117 104 109.4C106.267 101.667 107.399 93.8667 107.399 86C107.399 74.8001 105.667 63.4665 102.2 52C100.909 47.5066 99.3162 43.3038 97.4248 39.3906V118.525ZM27.7061 87.5254C28.3102 90.2836 29.0072 93.0425 29.7998 95.8008C31.4564 101.28 33.5406 106.333 36.0498 110.96V87.5254H27.7061ZM59 11.2002C51 11.2002 44.4002 13.7341 39.2002 18.8008C34.1335 23.7341 30.4669 30.0006 28.2002 37.6006C25.9336 45.2004 24.7998 53.0002 24.7998 61C24.7998 69.0719 25.6077 77.144 27.2217 85.2158L30.2998 79.1504H36.0498V34.7754L51.6748 29.7754V79.1504H81.7998V34.7754L92.7852 31.2598C90.8059 28.2978 88.6122 25.5436 86.2002 23C79.0002 15.1334 69.9332 11.2002 59 11.2002Z" fill="#9B4922"/>
</svg>
