<svg width="389" height="261" viewBox="0 0 389 261" fill="none" xmlns="http://www.w3.org/2000/svg">
<path d="M29.184 175.648L37.184 173.088V218.528L29.184 221.152V202.656H13.76V218.528L5.76 221.152V202.656H0.64L2.816 198.368H5.76V175.648L13.76 173.088V198.368H29.184V175.648ZM60.075 188.768C57.259 190.773 55.0403 193.056 53.419 195.616C51.8403 198.133 51.051 201.099 51.051 204.512C51.051 206.389 51.4137 208.288 52.139 210.208C52.8643 212.128 53.931 213.728 55.339 215.008C56.747 216.245 58.4323 216.864 60.395 216.864C62.8697 216.864 64.8537 215.968 66.347 214.176C67.883 212.384 68.651 210.165 68.651 207.52C68.651 205.515 68.1177 203.488 67.051 201.44C66.027 199.349 64.6403 197.6 62.891 196.192C61.1417 194.741 59.2643 193.931 57.259 193.76C58.155 192.779 59.115 191.883 60.139 191.072C61.2057 190.261 62.5283 189.28 64.107 188.128C67.179 189.152 69.611 191.051 71.403 193.824C73.2377 196.597 74.155 199.648 74.155 202.976C74.155 205.92 73.4937 208.779 72.171 211.552C70.891 214.325 69.0137 216.587 66.539 218.336C64.107 220.043 61.2697 220.896 58.027 220.896C55.339 220.896 52.8643 220.277 50.603 219.04C48.3843 217.76 46.6137 216.032 45.291 213.856C43.9683 211.637 43.307 209.205 43.307 206.56C43.307 201.995 44.7363 197.984 47.595 194.528C50.4963 191.072 54.251 188.661 58.859 187.296L60.075 188.768ZM89.1705 204.192C90.4932 201.163 92.0505 198.645 93.8425 196.64L93.6505 196.384C92.1998 197.237 90.4505 197.664 88.4025 197.664C87.0798 197.664 85.8638 197.451 84.7545 197.024L80.5945 205.92L77.9705 204.768L82.2585 195.936C82.1305 195.808 81.7252 195.445 81.0425 194.848C80.3598 194.251 79.9332 193.653 79.7625 193.056L85.9065 186.144C86.3758 187.893 87.2718 189.429 88.5945 190.752C89.9598 192.032 91.4745 192.672 93.1385 192.672C95.7412 192.672 98.4718 191.733 101.331 189.856L102.483 191.072C100.008 193.376 97.8958 196.107 96.1465 199.264C94.3972 202.421 93.5225 205.6 93.5225 208.8C93.5225 210.763 94.0132 212.405 94.9945 213.728C96.0185 215.051 97.4905 215.712 99.4105 215.712C100.691 215.712 102.056 215.243 103.507 214.304L104.467 215.456C103.229 217.035 101.736 218.293 99.9865 219.232C98.2798 220.171 96.4878 220.64 94.6105 220.64C92.2638 220.64 90.4505 219.872 89.1705 218.336C87.8905 216.757 87.2505 214.773 87.2505 212.384C87.2505 209.909 87.8905 207.179 89.1705 204.192ZM116.508 181.28L112.476 182.56L109.852 169.184L118.748 166.176L116.508 181.28ZM118.556 214.112C118.556 214.752 118.705 215.264 119.004 215.648C119.303 216.032 119.708 216.224 120.22 216.224C121.287 216.224 122.375 215.477 123.484 213.984L124.636 215.2C123.697 216.907 122.481 218.208 120.988 219.104C119.537 220 118.087 220.448 116.636 220.448C112.753 220.448 110.812 218.208 110.812 213.728V190.688L118.556 188V214.112ZM135.55 213.664C136.531 213.237 137.598 212.917 138.75 212.704C139.944 212.491 141.054 212.384 142.078 212.384C143.059 212.384 144.104 212.448 145.214 212.576C145.598 212.619 146.067 212.661 146.622 212.704C147.219 212.747 147.902 212.768 148.67 212.768C151.4 212.768 153.811 212.32 155.902 211.424L150.654 219.872C149.843 220.256 148.883 220.448 147.774 220.448C146.835 220.448 145.811 220.341 144.702 220.128C143.592 219.915 142.91 219.787 142.654 219.744C140.52 219.275 138.835 219.04 137.598 219.04C134.91 219.04 131.774 219.573 128.19 220.64L126.846 219.104L145.918 195.168L145.662 194.72C144.126 195.36 141.992 195.68 139.262 195.68C138.451 195.68 137.278 195.637 135.742 195.552C134.462 195.424 133.075 195.36 131.582 195.36C130.856 195.36 130.003 195.445 129.022 195.616C128.083 195.787 127.464 195.915 127.166 196L132.414 188C133.267 188 134.163 188.043 135.102 188.128C136.04 188.213 136.68 188.277 137.022 188.32C139.155 188.491 140.84 188.576 142.078 188.576C146.984 188.576 150.974 188.107 154.046 187.168L154.75 188.768L135.23 213.28L135.55 213.664ZM176.2 188.768C173.384 190.773 171.165 193.056 169.544 195.616C167.965 198.133 167.176 201.099 167.176 204.512C167.176 206.389 167.539 208.288 168.264 210.208C168.989 212.128 170.056 213.728 171.464 215.008C172.872 216.245 174.557 216.864 176.52 216.864C178.995 216.864 180.979 215.968 182.472 214.176C184.008 212.384 184.776 210.165 184.776 207.52C184.776 205.515 184.243 203.488 183.176 201.44C182.152 199.349 180.765 197.6 179.016 196.192C177.267 194.741 175.389 193.931 173.384 193.76C174.28 192.779 175.24 191.883 176.264 191.072C177.331 190.261 178.653 189.28 180.232 188.128C183.304 189.152 185.736 191.051 187.528 193.824C189.363 196.597 190.28 199.648 190.28 202.976C190.28 205.92 189.619 208.779 188.296 211.552C187.016 214.325 185.139 216.587 182.664 218.336C180.232 220.043 177.395 220.896 174.152 220.896C171.464 220.896 168.989 220.277 166.728 219.04C164.509 217.76 162.739 216.032 161.416 213.856C160.093 211.637 159.432 209.205 159.432 206.56C159.432 201.995 160.861 197.984 163.72 194.528C166.621 191.072 170.376 188.661 174.984 187.296L176.2 188.768ZM220.784 187.424C222.277 187.424 223.365 187.872 224.048 188.768C224.73 189.621 225.157 190.645 225.328 191.84C225.498 192.992 225.583 194.485 225.583 196.32V214.112C225.583 214.624 225.733 215.115 226.032 215.584C226.373 216.011 226.778 216.224 227.248 216.224C227.888 216.224 228.442 216.032 228.912 215.648C229.424 215.221 229.957 214.667 230.512 213.984L231.6 215.2C230.832 216.693 229.765 217.952 228.4 218.976C227.077 219.957 225.648 220.448 224.112 220.448C222.064 220.448 220.528 219.872 219.504 218.72C218.48 217.525 217.968 215.861 217.968 213.728V196.96C217.968 196.363 217.904 195.851 217.776 195.424C217.648 194.997 217.349 194.784 216.88 194.784C215.429 194.784 213.957 196.341 212.464 199.456C210.97 202.528 209.712 206.069 208.688 210.08C207.664 214.091 207.152 217.12 207.152 219.168L199.664 220.832V193.952C199.664 193.312 199.514 192.779 199.216 192.352C198.917 191.925 198.49 191.712 197.936 191.712C197.338 191.712 196.741 191.968 196.144 192.48C195.589 192.949 195.12 193.504 194.736 194.144L193.584 192.864C194.224 191.371 195.226 190.091 196.592 189.024C197.957 187.957 199.429 187.424 201.008 187.424C203.141 187.424 204.698 188.021 205.68 189.216C206.661 190.368 207.152 191.989 207.152 194.08V206.432H207.408C208.56 201.696 210.266 197.344 212.528 193.376C214.832 189.408 217.584 187.424 220.784 187.424ZM269.615 173.472C273.796 173.472 277.487 174.603 280.687 176.864C283.887 179.125 286.34 182.091 288.047 185.76C289.796 189.387 290.671 193.205 290.671 197.216C290.671 201.355 289.86 205.237 288.239 208.864C286.617 212.448 284.207 215.349 281.007 217.568C277.849 219.744 274.052 220.832 269.615 220.832C265.433 220.832 261.721 219.701 258.479 217.44C255.236 215.179 252.74 212.235 250.991 208.608C249.241 204.981 248.367 201.184 248.367 197.216C248.367 193.077 249.199 189.195 250.863 185.568C252.527 181.941 254.959 179.019 258.159 176.8C261.359 174.581 265.177 173.472 269.615 173.472ZM267.247 177.056C264.687 177.056 262.575 177.867 260.911 179.488C259.289 181.067 258.116 183.072 257.391 185.504C256.665 187.936 256.303 190.432 256.303 192.992C256.303 196.704 256.836 200.416 257.903 204.128C259.012 207.797 260.719 210.869 263.023 213.344C265.369 215.819 268.313 217.056 271.855 217.056C274.372 217.056 276.441 216.245 278.062 214.624C279.727 212.96 280.921 210.912 281.647 208.48C282.372 206.005 282.735 203.509 282.735 200.992C282.735 197.408 282.18 193.781 281.071 190.112C280.004 186.4 278.297 183.307 275.951 180.832C273.647 178.315 270.745 177.056 267.247 177.056ZM312.482 187.616C314.444 187.616 316.258 188.128 317.922 189.152C319.628 190.176 320.951 191.755 321.89 193.888L315.234 197.472C314.807 195.68 314.039 194.293 312.93 193.312C311.82 192.288 310.626 191.776 309.346 191.776C307.639 191.776 306.124 192.309 304.802 193.376C303.479 194.4 302.455 195.744 301.73 197.408C301.047 199.072 300.706 200.821 300.706 202.656C300.706 205.515 301.154 207.989 302.05 210.08C302.946 212.171 304.162 213.771 305.698 214.88C307.276 215.947 309.047 216.48 311.01 216.48C314.935 216.48 318.711 214.24 322.338 209.76L323.81 211.04C321.676 214.155 319.394 216.565 316.962 218.272C314.572 219.936 311.714 220.768 308.385 220.768C305.698 220.768 303.287 220.149 301.154 218.912C299.02 217.632 297.335 215.861 296.098 213.6C294.903 211.296 294.306 208.651 294.306 205.664C294.306 202.379 295.031 199.371 296.482 196.64C297.932 193.867 300.023 191.669 302.754 190.048C305.527 188.427 308.77 187.616 312.482 187.616ZM337.733 204.192C339.056 201.163 340.613 198.645 342.405 196.64L342.213 196.384C340.762 197.237 339.013 197.664 336.965 197.664C335.642 197.664 334.426 197.451 333.317 197.024L329.157 205.92L326.533 204.768L330.821 195.936C330.693 195.808 330.288 195.445 329.605 194.848C328.922 194.251 328.496 193.653 328.325 193.056L334.469 186.144C334.938 187.893 335.834 189.429 337.157 190.752C338.522 192.032 340.037 192.672 341.701 192.672C344.304 192.672 347.034 191.733 349.893 189.856L351.045 191.072C348.57 193.376 346.458 196.107 344.709 199.264C342.96 202.421 342.085 205.6 342.085 208.8C342.085 210.763 342.576 212.405 343.557 213.728C344.581 215.051 346.053 215.712 347.973 215.712C349.253 215.712 350.618 215.243 352.069 214.304L353.029 215.456C351.792 217.035 350.298 218.293 348.549 219.232C346.842 220.171 345.05 220.64 343.173 220.64C340.826 220.64 339.013 219.872 337.733 218.336C336.453 216.757 335.813 214.773 335.813 212.384C335.813 209.909 336.453 207.179 337.733 204.192ZM375.567 187.424C378.041 187.424 380.111 188.064 381.775 189.344C383.439 190.581 384.271 192.395 384.271 194.784C384.271 196.704 383.225 198.859 381.135 201.248C379.087 203.595 376.633 205.792 373.775 207.84C370.959 209.845 368.548 211.296 366.543 212.192C368.335 215.051 370.959 216.48 374.415 216.48C376.335 216.48 378.255 215.947 380.175 214.88C382.137 213.771 383.801 212.32 385.167 210.528L386.447 212.064C384.228 214.837 381.881 216.992 379.407 218.528C376.975 220.021 374.073 220.768 370.703 220.768C367.972 220.768 365.519 220.149 363.343 218.912C361.209 217.675 359.524 215.989 358.286 213.856C357.092 211.68 356.495 209.248 356.495 206.56C356.495 203.317 357.369 200.224 359.119 197.28C360.911 194.293 363.279 191.904 366.223 190.112C369.167 188.32 372.281 187.424 375.567 187.424ZM371.919 191.584C370.297 191.584 368.847 192.181 367.567 193.376C366.287 194.528 365.284 196.021 364.559 197.856C363.833 199.691 363.47 201.589 363.47 203.552C363.47 206.112 364.025 208.309 365.135 210.144C366.713 209.248 368.377 208.011 370.127 206.432C371.919 204.811 373.412 203.083 374.607 201.248C375.801 199.413 376.399 197.749 376.399 196.256C376.399 194.763 375.993 193.611 375.183 192.8C374.415 191.989 373.327 191.584 371.919 191.584Z" fill="#D9D9D9"/>
<path d="M194.399 0C207.466 0 219 3.53391 229 10.6006C239 17.6672 246.667 26.9338 252 38.4004C257.467 49.7336 260.2 61.667 260.2 74.2002C260.2 87.1335 257.666 99.2673 252.6 110.601C247.533 121.8 240 130.867 230 137.801C220.133 144.601 208.266 148 194.399 148C181.333 148 169.733 144.467 159.6 137.4C149.466 130.334 141.667 121.134 136.2 109.801C130.734 98.4674 128 86.6002 128 74.2002C128 61.2671 130.6 49.134 135.8 37.8008C141 26.4675 148.6 17.3337 158.6 10.4004C168.6 3.46712 180.533 6.61237e-05 194.399 0ZM225.425 118.525L209.8 123.65V87.5254H179.675V118.525L170.993 121.372C171.895 122.482 172.83 123.559 173.8 124.601C181.133 132.334 190.333 136.2 201.399 136.2C209.266 136.2 215.733 133.667 220.8 128.601C226 123.401 229.733 117 232 109.4C234.267 101.667 235.399 93.8667 235.399 86C235.399 74.8001 233.667 63.4665 230.2 52C228.909 47.5066 227.316 43.3038 225.425 39.3906V118.525ZM155.706 87.5254C156.31 90.2836 157.007 93.0425 157.8 95.8008C159.456 101.28 161.541 106.333 164.05 110.96V87.5254H155.706ZM187 11.2002C179 11.2002 172.4 13.7341 167.2 18.8008C162.134 23.7341 158.467 30.0006 156.2 37.6006C153.934 45.2004 152.8 53.0002 152.8 61C152.8 69.0719 153.608 77.144 155.222 85.2158L158.3 79.1504H164.05V34.7754L179.675 29.7754V79.1504H209.8V34.7754L220.785 31.2598C218.806 28.2978 216.612 25.5436 214.2 23C207 15.1334 197.933 11.2002 187 11.2002Z" fill="#9B4922"/>
</svg>
