<svg width="387" height="56" viewBox="0 0 387 56" fill="none" xmlns="http://www.w3.org/2000/svg">
<path d="M29.184 9.648L37.184 7.088V52.528L29.184 55.152V36.656H13.76V52.528L5.76 55.152V36.656H0.64L2.816 32.368H5.76V9.648L13.76 7.088V32.368H29.184V9.648ZM60.075 22.768C57.259 24.7733 55.0403 27.056 53.419 29.616C51.8403 32.1333 51.051 35.0987 51.051 38.512C51.051 40.3893 51.4137 42.288 52.139 44.208C52.8643 46.128 53.931 47.728 55.339 49.008C56.747 50.2453 58.4323 50.864 60.395 50.864C62.8697 50.864 64.8537 49.968 66.347 48.176C67.883 46.384 68.651 44.1653 68.651 41.52C68.651 39.5147 68.1177 37.488 67.051 35.44C66.027 33.3493 64.6403 31.6 62.891 30.192C61.1417 28.7413 59.2643 27.9307 57.259 27.76C58.155 26.7787 59.115 25.8827 60.139 25.072C61.2057 24.2613 62.5283 23.28 64.107 22.128C67.179 23.152 69.611 25.0507 71.403 27.824C73.2377 30.5973 74.155 33.648 74.155 36.976C74.155 39.92 73.4937 42.7787 72.171 45.552C70.891 48.3253 69.0137 50.5867 66.539 52.336C64.107 54.0427 61.2697 54.896 58.027 54.896C55.339 54.896 52.8643 54.2773 50.603 53.04C48.3843 51.76 46.6137 50.032 45.291 47.856C43.9683 45.6373 43.307 43.2053 43.307 40.56C43.307 35.9947 44.7363 31.984 47.595 28.528C50.4963 25.072 54.251 22.6613 58.859 21.296L60.075 22.768ZM89.1705 38.192C90.4932 35.1627 92.0505 32.6453 93.8425 30.64L93.6505 30.384C92.1998 31.2373 90.4505 31.664 88.4025 31.664C87.0798 31.664 85.8638 31.4507 84.7545 31.024L80.5945 39.92L77.9705 38.768L82.2585 29.936C82.1305 29.808 81.7252 29.4453 81.0425 28.848C80.3598 28.2507 79.9332 27.6533 79.7625 27.056L85.9065 20.144C86.3758 21.8933 87.2718 23.4293 88.5945 24.752C89.9598 26.032 91.4745 26.672 93.1385 26.672C95.7412 26.672 98.4718 25.7333 101.331 23.856L102.483 25.072C100.008 27.376 97.8958 30.1067 96.1465 33.264C94.3972 36.4213 93.5225 39.6 93.5225 42.8C93.5225 44.7627 94.0132 46.4053 94.9945 47.728C96.0185 49.0507 97.4905 49.712 99.4105 49.712C100.691 49.712 102.056 49.2427 103.507 48.304L104.467 49.456C103.229 51.0347 101.736 52.2933 99.9865 53.232C98.2798 54.1707 96.4878 54.64 94.6105 54.64C92.2638 54.64 90.4505 53.872 89.1705 52.336C87.8905 50.7573 87.2505 48.7733 87.2505 46.384C87.2505 43.9093 87.8905 41.1787 89.1705 38.192ZM116.508 15.28L112.476 16.56L109.852 3.184L118.748 0.175999L116.508 15.28ZM118.556 48.112C118.556 48.752 118.705 49.264 119.004 49.648C119.303 50.032 119.708 50.224 120.22 50.224C121.287 50.224 122.375 49.4773 123.484 47.984L124.636 49.2C123.697 50.9067 122.481 52.208 120.988 53.104C119.537 54 118.087 54.448 116.636 54.448C112.753 54.448 110.812 52.208 110.812 47.728V24.688L118.556 22V48.112ZM135.55 47.664C136.531 47.2373 137.598 46.9173 138.75 46.704C139.944 46.4907 141.054 46.384 142.078 46.384C143.059 46.384 144.104 46.448 145.214 46.576C145.598 46.6187 146.067 46.6613 146.622 46.704C147.219 46.7467 147.902 46.768 148.67 46.768C151.4 46.768 153.811 46.32 155.902 45.424L150.654 53.872C149.843 54.256 148.883 54.448 147.774 54.448C146.835 54.448 145.811 54.3413 144.702 54.128C143.592 53.9147 142.91 53.7867 142.654 53.744C140.52 53.2747 138.835 53.04 137.598 53.04C134.91 53.04 131.774 53.5733 128.19 54.64L126.846 53.104L145.918 29.168L145.662 28.72C144.126 29.36 141.992 29.68 139.262 29.68C138.451 29.68 137.278 29.6373 135.742 29.552C134.462 29.424 133.075 29.36 131.582 29.36C130.856 29.36 130.003 29.4453 129.022 29.616C128.083 29.7867 127.464 29.9147 127.166 30L132.414 22C133.267 22 134.163 22.0427 135.102 22.128C136.04 22.2133 136.68 22.2773 137.022 22.32C139.155 22.4907 140.84 22.576 142.078 22.576C146.984 22.576 150.974 22.1067 154.046 21.168L154.75 22.768L135.23 47.28L135.55 47.664ZM176.2 22.768C173.384 24.7733 171.165 27.056 169.544 29.616C167.965 32.1333 167.176 35.0987 167.176 38.512C167.176 40.3893 167.539 42.288 168.264 44.208C168.989 46.128 170.056 47.728 171.464 49.008C172.872 50.2453 174.557 50.864 176.52 50.864C178.995 50.864 180.979 49.968 182.472 48.176C184.008 46.384 184.776 44.1653 184.776 41.52C184.776 39.5147 184.243 37.488 183.176 35.44C182.152 33.3493 180.765 31.6 179.016 30.192C177.267 28.7413 175.389 27.9307 173.384 27.76C174.28 26.7787 175.24 25.8827 176.264 25.072C177.331 24.2613 178.653 23.28 180.232 22.128C183.304 23.152 185.736 25.0507 187.528 27.824C189.363 30.5973 190.28 33.648 190.28 36.976C190.28 39.92 189.619 42.7787 188.296 45.552C187.016 48.3253 185.139 50.5867 182.664 52.336C180.232 54.0427 177.395 54.896 174.152 54.896C171.464 54.896 168.989 54.2773 166.728 53.04C164.509 51.76 162.739 50.032 161.416 47.856C160.093 45.6373 159.432 43.2053 159.432 40.56C159.432 35.9947 160.861 31.984 163.72 28.528C166.621 25.072 170.376 22.6613 174.984 21.296L176.2 22.768ZM220.784 21.424C222.277 21.424 223.365 21.872 224.048 22.768C224.73 23.6213 225.157 24.6453 225.328 25.84C225.498 26.992 225.583 28.4853 225.583 30.32V48.112C225.583 48.624 225.733 49.1147 226.032 49.584C226.373 50.0107 226.778 50.224 227.248 50.224C227.888 50.224 228.442 50.032 228.912 49.648C229.424 49.2213 229.957 48.6667 230.512 47.984L231.6 49.2C230.832 50.6933 229.765 51.952 228.4 52.976C227.077 53.9573 225.648 54.448 224.112 54.448C222.064 54.448 220.528 53.872 219.504 52.72C218.48 51.5253 217.968 49.8613 217.968 47.728V30.96C217.968 30.3627 217.904 29.8507 217.776 29.424C217.648 28.9973 217.349 28.784 216.88 28.784C215.429 28.784 213.957 30.3413 212.464 33.456C210.97 36.528 209.712 40.0693 208.688 44.08C207.664 48.0907 207.152 51.12 207.152 53.168L199.664 54.832V27.952C199.664 27.312 199.514 26.7787 199.216 26.352C198.917 25.9253 198.49 25.712 197.936 25.712C197.338 25.712 196.741 25.968 196.144 26.48C195.589 26.9493 195.12 27.504 194.736 28.144L193.584 26.864C194.224 25.3707 195.226 24.0907 196.592 23.024C197.957 21.9573 199.429 21.424 201.008 21.424C203.141 21.424 204.698 22.0213 205.68 23.216C206.661 24.368 207.152 25.9893 207.152 28.08V40.432H207.408C208.56 35.696 210.266 31.344 212.528 27.376C214.832 23.408 217.584 21.424 220.784 21.424ZM269.615 7.472C273.796 7.472 277.487 8.60266 280.687 10.864C283.887 13.1253 286.34 16.0907 288.047 19.76C289.796 23.3867 290.671 27.2053 290.671 31.216C290.671 35.3547 289.86 39.2373 288.239 42.864C286.617 46.448 284.207 49.3493 281.007 51.568C277.849 53.744 274.052 54.832 269.615 54.832C265.433 54.832 261.721 53.7013 258.479 51.44C255.236 49.1787 252.74 46.2347 250.991 42.608C249.241 38.9813 248.367 35.184 248.367 31.216C248.367 27.0773 249.199 23.1947 250.863 19.568C252.527 15.9413 254.959 13.0187 258.159 10.8C261.359 8.58133 265.177 7.472 269.615 7.472ZM267.247 11.056C264.687 11.056 262.575 11.8667 260.911 13.488C259.289 15.0667 258.116 17.072 257.391 19.504C256.665 21.936 256.303 24.432 256.303 26.992C256.303 30.704 256.836 34.416 257.903 38.128C259.012 41.7973 260.719 44.8693 263.023 47.344C265.369 49.8187 268.313 51.056 271.855 51.056C274.372 51.056 276.441 50.2453 278.062 48.624C279.727 46.96 280.921 44.912 281.647 42.48C282.372 40.0053 282.735 37.5093 282.735 34.992C282.735 31.408 282.18 27.7813 281.071 24.112C280.004 20.4 278.297 17.3067 275.951 14.832C273.647 12.3147 270.745 11.056 267.247 11.056ZM312.482 21.616C314.444 21.616 316.258 22.128 317.922 23.152C319.628 24.176 320.951 25.7547 321.89 27.888L315.234 31.472C314.807 29.68 314.039 28.2933 312.93 27.312C311.82 26.288 310.626 25.776 309.346 25.776C307.639 25.776 306.124 26.3093 304.802 27.376C303.479 28.4 302.455 29.744 301.73 31.408C301.047 33.072 300.706 34.8213 300.706 36.656C300.706 39.5147 301.154 41.9893 302.05 44.08C302.946 46.1707 304.162 47.7707 305.698 48.88C307.276 49.9467 309.047 50.48 311.01 50.48C314.935 50.48 318.711 48.24 322.338 43.76L323.81 45.04C321.676 48.1547 319.394 50.5653 316.962 52.272C314.572 53.936 311.714 54.768 308.385 54.768C305.698 54.768 303.287 54.1493 301.154 52.912C299.02 51.632 297.335 49.8613 296.098 47.6C294.903 45.296 294.306 42.6507 294.306 39.664C294.306 36.3787 295.031 33.3707 296.482 30.64C297.932 27.8667 300.023 25.6693 302.754 24.048C305.527 22.4267 308.77 21.616 312.482 21.616ZM337.733 38.192C339.056 35.1627 340.613 32.6453 342.405 30.64L342.213 30.384C340.762 31.2373 339.013 31.664 336.965 31.664C335.642 31.664 334.426 31.4507 333.317 31.024L329.157 39.92L326.533 38.768L330.821 29.936C330.693 29.808 330.288 29.4453 329.605 28.848C328.922 28.2507 328.496 27.6533 328.325 27.056L334.469 20.144C334.938 21.8933 335.834 23.4293 337.157 24.752C338.522 26.032 340.037 26.672 341.701 26.672C344.304 26.672 347.034 25.7333 349.893 23.856L351.045 25.072C348.57 27.376 346.458 30.1067 344.709 33.264C342.96 36.4213 342.085 39.6 342.085 42.8C342.085 44.7627 342.576 46.4053 343.557 47.728C344.581 49.0507 346.053 49.712 347.973 49.712C349.253 49.712 350.618 49.2427 352.069 48.304L353.029 49.456C351.792 51.0347 350.298 52.2933 348.549 53.232C346.842 54.1707 345.05 54.64 343.173 54.64C340.826 54.64 339.013 53.872 337.733 52.336C336.453 50.7573 335.813 48.7733 335.813 46.384C335.813 43.9093 336.453 41.1787 337.733 38.192ZM375.567 21.424C378.041 21.424 380.111 22.064 381.775 23.344C383.439 24.5813 384.271 26.3947 384.271 28.784C384.271 30.704 383.225 32.8587 381.135 35.248C379.087 37.5947 376.633 39.792 373.775 41.84C370.959 43.8453 368.548 45.296 366.543 46.192C368.335 49.0507 370.959 50.48 374.415 50.48C376.335 50.48 378.255 49.9467 380.175 48.88C382.137 47.7707 383.801 46.32 385.167 44.528L386.447 46.064C384.228 48.8373 381.881 50.992 379.407 52.528C376.975 54.0213 374.073 54.768 370.703 54.768C367.972 54.768 365.519 54.1493 363.343 52.912C361.209 51.6747 359.524 49.9893 358.286 47.856C357.092 45.68 356.495 43.248 356.495 40.56C356.495 37.3173 357.369 34.224 359.119 31.28C360.911 28.2933 363.279 25.904 366.223 24.112C369.167 22.32 372.281 21.424 375.567 21.424ZM371.919 25.584C370.297 25.584 368.847 26.1813 367.567 27.376C366.287 28.528 365.284 30.0213 364.559 31.856C363.833 33.6907 363.47 35.5893 363.47 37.552C363.47 40.112 364.025 42.3093 365.135 44.144C366.713 43.248 368.377 42.0107 370.127 40.432C371.919 38.8107 373.412 37.0827 374.607 35.248C375.801 33.4133 376.399 31.7493 376.399 30.256C376.399 28.7627 375.993 27.6107 375.183 26.8C374.415 25.9893 373.327 25.584 371.919 25.584Z" fill="#D9D9D9"/>
</svg>
